# xmcd
#
# Track frame offsets: 
#        150
#        10622
#        21725
#        32507
#        45040
#        55857
#        67222
#        81080
#        90590
#        104997
#        116970
#        126992
#        140167
#        153010
#        165312
#        176450
#        188935
#        199442
#        212480
#        223497
#        244552
#        255490
#        266445
#        277472
#        288445
#        299872
#        311230
#
# Disc length: 4300 seconds
#
# Revision: 1
# Processed by: cddbd v1.5.2PL0 Copyright (c) Steve Scherf et al.
# Submitted via: ExactAudioCopy v1.0b1
#
DISCID=ab10ca1b
DTITLE=Various Artist - Urban Blues Volumes 1 and 2 (BGO)
DYEAR=1999
DGENRE=R&B
TTITLE0=Fats Domino - Don't You Lie To Me (mono)
TTITLE1=Dirty Red - Mother Fuyer (mono)
TTITLE2=T-Bone Walker - Vida Lee (mono)
TTITLE3=Smiley Lewis - Too Many Drivers (mono)
TTITLE4=Joe Turner - Story To Tell (mono)
TTITLE5=Roosevelt Sykes - Sweet Old Chicago (mono)
TTITLE6=Mercy Dee - Empty Life (mono)
TTITLE7=Fats Domino - Rose Mary (version 1) (mono)
TTITLE8=Dirty Red - You Done Me Wrong (mono)
TTITLE9=T-Bone Walker - I Get So Weary (mono)
TTITLE10=Smiley Lewis - Tee-Nah-Nah (mono)
TTITLE11=Roosevelt Sykes - You Can't Be Lucky All The Time (mono)
TTITLE12=Joe Turner and Wynonie Harris - Battle Of The Blues (Part I) (m
TTITLE12=ono)
TTITLE13=Mercy Dee - Danger Zone (mono)
TTITLE14=Fats Domino - Help Me (mono)
TTITLE15=Fats Domino - I've Got Eyes For You (mono)
TTITLE16=Fats Domino - Stay Away (mono)
TTITLE17=Smiley Lewis - Slide Me Down (mono)
TTITLE18=Smiley Lewis - It's So Peaceful (mono)
TTITLE19=Smilin' Joe - ABC's (Parts 1 and 2) (mono)
TTITLE20=Archibald - Shake, Shake, Baby (mono)
TTITLE21=Archibald - Soon As I Go Home (mono)
TTITLE22=Little Sonny Jones - Going Back To The Country (mono)
TTITLE23=Fats Matthews - I'm Thankful (mono)
TTITLE24=Joe Turner - Lucille (mono)
TTITLE25=Wee Willie Wayne - Travelin' Mood (mono)
TTITLE26=Amos Millburn - Chicken Shack Boogie (1956) (mono)
EXTD=
EXTT0=
EXTT1=
EXTT2=
EXTT3=
EXTT4=
EXTT5=
EXTT6=
EXTT7=
EXTT8=
EXTT9=
EXTT10=
EXTT11=
EXTT12=
EXTT13=
EXTT14=
EXTT15=
EXTT16=
EXTT17=
EXTT18=
EXTT19=
EXTT20=
EXTT21=
EXTT22=
EXTT23=
EXTT24=
EXTT25=
EXTT26=
PLAYORDER=
